<svg id="visual" viewBox="0 0 980 572" width="980" height="572" xmlns="http://www.w3.org/2000/svg" xmlns:xlink="http://www.w3.org/1999/xlink" version="1.1"><rect x="0" y="0" width="980" height="572" fill="#001220"></rect><defs><linearGradient id="grad1_0" x1="41.6%" y1="100%" x2="100%" y2="0%"><stop offset="15.734265734265733%" stop-color="#001220" stop-opacity="1"></stop><stop offset="84.26573426573427%" stop-color="#001220" stop-opacity="1"></stop></linearGradient></defs><defs><linearGradient id="grad2_0" x1="0%" y1="100%" x2="58.4%" y2="0%"><stop offset="15.734265734265733%" stop-color="#001220" stop-opacity="1"></stop><stop offset="84.26573426573427%" stop-color="#001220" stop-opacity="1"></stop></linearGradient></defs><g transform="translate(980, 572)"><path d="M-312 0C-287 -44.5 -261.9 -89 -239 -138C-216.2 -187 -195.5 -240.5 -156 -270.2C-116.6 -300 -58.3 -306 0 -312L0 0Z" fill="#03b1b1"></path></g><g transform="translate(0, 0)"><path d="M312 0C275.4 37.8 238.8 75.7 217.4 125.5C195.9 175.3 189.7 237.2 156 270.2C122.3 303.3 61.2 307.7 0 312L0 0Z" fill="#03b1b1"></path></g></svg>